<?xml version="1.0" encoding="UTF-8"?>
<svg id="Layer_2" xmlns="http://www.w3.org/2000/svg" version="1.1" viewBox="0 0 26.34 21.45">
  <!-- Generator: Adobe Illustrator 29.8.3, SVG Export Plug-In . SVG Version: 2.1.1 Build 3)  -->
  <defs>
    <style>
      .st0 {
        fill: none;
        stroke: #272f40;
        stroke-miterlimit: 10;
        stroke-width: 2px;
      }
    </style>
  </defs>
  <path class="st0" d="M23.11,2.65c1.75,1.68,2.89,4.55,1.8,6.89-.88,1.88-4.56,5.63-6.27,6.83-1.14.8-2.95,2.05-4.18,2.77s-3.31,2.04-4.47.81c-.21-.22-.2-.67-.38-.86-.56-.62-1.07-1.33-1.52-1.83-1.87-2.04-4.94-3.98-6.08-6.45-1.26-2.71-1.39-4.82-.1-7.56.88-1.86,3.9-2.7,5.76-2.01.18.06,2.41,1.35,2.66,1.52.96.66,1.58,2.16,2.78,2.72,2.38-1.11,3.84-3.41,6.53-3.98,1.86-.4,2.28.02,3.47,1.16h0Z"/>
</svg>