<?xml version="1.0" encoding="UTF-8"?>
<svg id="Layer_2" data-name="Layer 2" xmlns="http://www.w3.org/2000/svg" viewBox="0 0 24.34 19.45">
  <defs>
    <style>
      .cls-1 {
        fill: #d26db3;
      }
    </style>
  </defs>
  <path class="cls-1" d="M22.11,1.65c1.75,1.68,2.89,4.55,1.8,6.89-.88,1.88-4.56,5.63-6.27,6.83-1.14.8-2.95,2.05-4.18,2.77s-3.31,2.04-4.47.81c-.21-.22-.2-.67-.38-.86-.56-.62-1.07-1.33-1.52-1.83-1.87-2.04-4.94-3.98-6.08-6.45C-.25,7.1-.38,4.99.91,2.25,1.79.39,4.81-.45,6.67.24c.18.06,2.41,1.35,2.66,1.52.96.66,1.58,2.16,2.78,2.72,2.38-1.11,3.84-3.41,6.53-3.98,1.86-.4,2.28.02,3.47,1.16Z"/>
</svg>